<?xml version="1.0" encoding="UTF-8" standalone="no"?>
<!-- Created with Inkscape (http://www.inkscape.org/) -->

<svg
   xmlns:dc="http://purl.org/dc/elements/1.1/"
   xmlns:cc="http://creativecommons.org/ns#"
   xmlns:rdf="http://www.w3.org/1999/02/22-rdf-syntax-ns#"
   xmlns:svg="http://www.w3.org/2000/svg"
   xmlns="http://www.w3.org/2000/svg"
   xmlns:xlink="http://www.w3.org/1999/xlink"
   xmlns:sodipodi="http://sodipodi.sourceforge.net/DTD/sodipodi-0.dtd"
   xmlns:inkscape="http://www.inkscape.org/namespaces/inkscape"
   width="189mm"
   height="179mm"
   viewBox="0 0 189 179"
   version="1.1"
   id="svg8"
   sodipodi:docname="woman.svg"
   inkscape:version="0.92.4 (5da689c313, 2019-01-14)">
  <defs
     id="defs2">
    <clipPath
       clipPathUnits="userSpaceOnUse"
       id="clipPath8695">
      <use
         x="0"
         y="0"
         xlink:href="#g8691"
         id="use8697"
         width="100%"
         height="100%" />
    </clipPath>
    <clipPath
       clipPathUnits="userSpaceOnUse"
       id="clipPath8627">
      <rect
         style="fill:#0d6efd;fill-opacity:1;stroke:none;stroke-width:31.18110275;stroke-miterlimit:4;stroke-dasharray:none;stroke-opacity:1"
         id="rect8629"
         width="1335.1393"
         height="1548.7616"
         x="8240.7119"
         y="-3798.7617"
         ry="0.43798801"
         transform="scale(1,-1)" />
    </clipPath>
    <clipPath
       clipPathUnits="userSpaceOnUse"
       id="clipPath8623">
      <rect
         style="fill:#0d6efd;fill-opacity:1;stroke:none;stroke-width:31.18110275;stroke-miterlimit:4;stroke-dasharray:none;stroke-opacity:1"
         id="rect8625"
         width="1335.1393"
         height="1548.7616"
         x="8240.7119"
         y="-3798.7617"
         ry="0.43798801"
         transform="scale(1,-1)" />
    </clipPath>
    <clipPath
       clipPathUnits="userSpaceOnUse"
       id="clipPath8619">
      <rect
         style="fill:#0d6efd;fill-opacity:1;stroke:none;stroke-width:31.18110275;stroke-miterlimit:4;stroke-dasharray:none;stroke-opacity:1"
         id="rect8621"
         width="1335.1393"
         height="1548.7616"
         x="8240.7119"
         y="-3798.7617"
         ry="0.43798801"
         transform="scale(1,-1)" />
    </clipPath>
    <clipPath
       clipPathUnits="userSpaceOnUse"
       id="clipPath8615">
      <rect
         style="fill:#0d6efd;fill-opacity:1;stroke:none;stroke-width:31.18110275;stroke-miterlimit:4;stroke-dasharray:none;stroke-opacity:1"
         id="rect8617"
         width="1335.1393"
         height="1548.7616"
         x="8240.7119"
         y="-3798.7617"
         ry="0.43798801"
         transform="scale(1,-1)" />
    </clipPath>
    <clipPath
       clipPathUnits="userSpaceOnUse"
       id="clipPath8611">
      <rect
         style="fill:#0d6efd;fill-opacity:1;stroke:none;stroke-width:31.18110275;stroke-miterlimit:4;stroke-dasharray:none;stroke-opacity:1"
         id="rect8613"
         width="1335.1393"
         height="1548.7616"
         x="8240.7119"
         y="-3798.7617"
         ry="0.43798801"
         transform="scale(1,-1)" />
    </clipPath>
    <clipPath
       clipPathUnits="userSpaceOnUse"
       id="clipPath8607">
      <rect
         style="fill:#0d6efd;fill-opacity:1;stroke:none;stroke-width:31.18110275;stroke-miterlimit:4;stroke-dasharray:none;stroke-opacity:1"
         id="rect8609"
         width="1335.1393"
         height="1548.7616"
         x="8240.7119"
         y="-3798.7617"
         ry="0.43798801"
         transform="scale(1,-1)" />
    </clipPath>
    <clipPath
       clipPathUnits="userSpaceOnUse"
       id="clipPath8603">
      <rect
         style="fill:#0d6efd;fill-opacity:1;stroke:none;stroke-width:31.18110275;stroke-miterlimit:4;stroke-dasharray:none;stroke-opacity:1"
         id="rect8605"
         width="1335.1393"
         height="1548.7616"
         x="8240.7119"
         y="-3798.7617"
         ry="0.43798801"
         transform="scale(1,-1)" />
    </clipPath>
    <clipPath
       clipPathUnits="userSpaceOnUse"
       id="clipPath8599">
      <rect
         style="fill:#0d6efd;fill-opacity:1;stroke:none;stroke-width:31.18110275;stroke-miterlimit:4;stroke-dasharray:none;stroke-opacity:1"
         id="rect8601"
         width="1335.1393"
         height="1548.7616"
         x="8240.7119"
         y="-3798.7617"
         ry="0.43798801"
         transform="scale(1,-1)" />
    </clipPath>
    <clipPath
       clipPathUnits="userSpaceOnUse"
       id="clipPath8595">
      <rect
         style="fill:#0d6efd;fill-opacity:1;stroke:none;stroke-width:31.18110275;stroke-miterlimit:4;stroke-dasharray:none;stroke-opacity:1"
         id="rect8597"
         width="1335.1393"
         height="1548.7616"
         x="8240.7119"
         y="-3798.7617"
         ry="0.43798801"
         transform="scale(1,-1)" />
    </clipPath>
    <clipPath
       clipPathUnits="userSpaceOnUse"
       id="clipPath8591">
      <rect
         style="fill:#0d6efd;fill-opacity:1;stroke:none;stroke-width:31.18110275;stroke-miterlimit:4;stroke-dasharray:none;stroke-opacity:1"
         id="rect8593"
         width="1335.1393"
         height="1548.7616"
         x="8240.7119"
         y="-3798.7617"
         ry="0.43798801"
         transform="scale(1,-1)" />
    </clipPath>
    <clipPath
       clipPathUnits="userSpaceOnUse"
       id="clipPath8587">
      <rect
         style="fill:#0d6efd;fill-opacity:1;stroke:none;stroke-width:31.18110275;stroke-miterlimit:4;stroke-dasharray:none;stroke-opacity:1"
         id="rect8589"
         width="1335.1393"
         height="1548.7616"
         x="8240.7119"
         y="-3798.7617"
         ry="0.43798801"
         transform="scale(1,-1)" />
    </clipPath>
    <clipPath
       clipPathUnits="userSpaceOnUse"
       id="clipPath8583">
      <rect
         style="fill:#0d6efd;fill-opacity:1;stroke:none;stroke-width:31.18110275;stroke-miterlimit:4;stroke-dasharray:none;stroke-opacity:1"
         id="rect8585"
         width="1335.1393"
         height="1548.7616"
         x="8240.7119"
         y="-3798.7617"
         ry="0.43798801"
         transform="scale(1,-1)" />
    </clipPath>
    <clipPath
       clipPathUnits="userSpaceOnUse"
       id="clipPath8579">
      <rect
         style="fill:#0d6efd;fill-opacity:1;stroke:none;stroke-width:31.18110275;stroke-miterlimit:4;stroke-dasharray:none;stroke-opacity:1"
         id="rect8581"
         width="1335.1393"
         height="1548.7616"
         x="8240.7119"
         y="-3798.7617"
         ry="0.43798801"
         transform="scale(1,-1)" />
    </clipPath>
    <clipPath
       clipPathUnits="userSpaceOnUse"
       id="clipPath8575">
      <rect
         style="fill:#0d6efd;fill-opacity:1;stroke:none;stroke-width:31.18110275;stroke-miterlimit:4;stroke-dasharray:none;stroke-opacity:1"
         id="rect8577"
         width="1335.1393"
         height="1548.7616"
         x="8240.7119"
         y="-3798.7617"
         ry="0.43798801"
         transform="scale(1,-1)" />
    </clipPath>
    <clipPath
       clipPathUnits="userSpaceOnUse"
       id="clipPath8571">
      <rect
         style="fill:#0d6efd;fill-opacity:1;stroke:none;stroke-width:31.18110275;stroke-miterlimit:4;stroke-dasharray:none;stroke-opacity:1"
         id="rect8573"
         width="1335.1393"
         height="1548.7616"
         x="8240.7119"
         y="-3798.7617"
         ry="0.43798801"
         transform="scale(1,-1)" />
    </clipPath>
    <clipPath
       clipPathUnits="userSpaceOnUse"
       id="clipPath8567">
      <rect
         style="fill:#0d6efd;fill-opacity:1;stroke:none;stroke-width:31.18110275;stroke-miterlimit:4;stroke-dasharray:none;stroke-opacity:1"
         id="rect8569"
         width="1335.1393"
         height="1548.7616"
         x="8240.7119"
         y="-3798.7617"
         ry="0.43798801"
         transform="scale(1,-1)" />
    </clipPath>
    <clipPath
       clipPathUnits="userSpaceOnUse"
       id="clipPath8563">
      <rect
         style="fill:#0d6efd;fill-opacity:1;stroke:none;stroke-width:31.18110275;stroke-miterlimit:4;stroke-dasharray:none;stroke-opacity:1"
         id="rect8565"
         width="1335.1393"
         height="1548.7616"
         x="8240.7119"
         y="-3798.7617"
         ry="0.43798801"
         transform="scale(1,-1)" />
    </clipPath>
    <clipPath
       clipPathUnits="userSpaceOnUse"
       id="clipPath8559">
      <rect
         style="fill:#0d6efd;fill-opacity:1;stroke:none;stroke-width:31.18110275;stroke-miterlimit:4;stroke-dasharray:none;stroke-opacity:1"
         id="rect8561"
         width="1335.1393"
         height="1548.7616"
         x="8240.7119"
         y="-3798.7617"
         ry="0.43798801"
         transform="scale(1,-1)" />
    </clipPath>
    <clipPath
       clipPathUnits="userSpaceOnUse"
       id="clipPath1464">
      <path
         inkscape:connector-curvature="0"
         d="m 8879.3,3308.68 c 43.51,-34.8 75.48,-2.53 110.28,40.98 34.8,43.51 38.71,110.64 -4.8,145.44 -43.52,34.8 -117.97,24.1 -152.77,-19.41 -34.8,-43.51 3.77,-132.21 47.29,-167.01 z"
         id="path1462" />
    </clipPath>
    <clipPath
       clipPathUnits="userSpaceOnUse"
       id="clipPath8555">
      <rect
         style="fill:#0d6efd;fill-opacity:1;stroke:none;stroke-width:31.18110275;stroke-miterlimit:4;stroke-dasharray:none;stroke-opacity:1"
         id="rect8557"
         width="1335.1393"
         height="1548.7616"
         x="8240.7119"
         y="-3798.7617"
         ry="0.43798801"
         transform="scale(1,-1)" />
    </clipPath>
    <clipPath
       clipPathUnits="userSpaceOnUse"
       id="clipPath8551">
      <rect
         style="fill:#0d6efd;fill-opacity:1;stroke:none;stroke-width:31.18110275;stroke-miterlimit:4;stroke-dasharray:none;stroke-opacity:1"
         id="rect8553"
         width="1335.1393"
         height="1548.7616"
         x="8240.7119"
         y="-3798.7617"
         ry="0.43798801" />
    </clipPath>
    <clipPath
       clipPathUnits="userSpaceOnUse"
       id="clipPath8547">
      <rect
         style="fill:#0d6efd;fill-opacity:1;stroke:none;stroke-width:31.18110275;stroke-miterlimit:4;stroke-dasharray:none;stroke-opacity:1"
         id="rect8549"
         width="1335.1393"
         height="1548.7616"
         x="8240.7119"
         y="-3798.7617"
         ry="0.43798801" />
    </clipPath>
    <clipPath
       clipPathUnits="userSpaceOnUse"
       id="clipPath8543">
      <rect
         style="fill:#0d6efd;fill-opacity:1;stroke:none;stroke-width:31.18110275;stroke-miterlimit:4;stroke-dasharray:none;stroke-opacity:1"
         id="rect8545"
         width="1335.1393"
         height="1548.7616"
         x="8240.7119"
         y="-3798.7617"
         ry="0.43798801" />
    </clipPath>
    <clipPath
       clipPathUnits="userSpaceOnUse"
       id="clipPath8539">
      <rect
         style="fill:#0d6efd;fill-opacity:1;stroke:none;stroke-width:31.18110275;stroke-miterlimit:4;stroke-dasharray:none;stroke-opacity:1"
         id="rect8541"
         width="1335.1393"
         height="1548.7616"
         x="8240.7119"
         y="-3798.7617"
         ry="0.43798801" />
    </clipPath>
    <clipPath
       clipPathUnits="userSpaceOnUse"
       id="clipPath8535">
      <rect
         style="fill:#0d6efd;fill-opacity:1;stroke:none;stroke-width:31.18110275;stroke-miterlimit:4;stroke-dasharray:none;stroke-opacity:1"
         id="rect8537"
         width="1335.1393"
         height="1548.7616"
         x="8240.7119"
         y="-3798.7617"
         ry="0.43798801" />
    </clipPath>
    <clipPath
       clipPathUnits="userSpaceOnUse"
       id="clipPath8531">
      <rect
         style="fill:#0d6efd;fill-opacity:1;stroke:none;stroke-width:31.18110275;stroke-miterlimit:4;stroke-dasharray:none;stroke-opacity:1"
         id="rect8533"
         width="1335.1393"
         height="1548.7616"
         x="8240.7119"
         y="-3798.7617"
         ry="0.43798801" />
    </clipPath>
    <clipPath
       clipPathUnits="userSpaceOnUse"
       id="clipPath8527">
      <rect
         style="fill:#0d6efd;fill-opacity:1;stroke:none;stroke-width:31.18110275;stroke-miterlimit:4;stroke-dasharray:none;stroke-opacity:1"
         id="rect8529"
         width="1335.1393"
         height="1548.7616"
         x="8240.7119"
         y="-3798.7617"
         ry="0.43798801" />
    </clipPath>
    <clipPath
       clipPathUnits="userSpaceOnUse"
       id="clipPath8523">
      <rect
         style="fill:#0d6efd;fill-opacity:1;stroke:none;stroke-width:31.18110275;stroke-miterlimit:4;stroke-dasharray:none;stroke-opacity:1"
         id="rect8525"
         width="1335.1393"
         height="1548.7616"
         x="8240.7119"
         y="-3798.7617"
         ry="0.43798801" />
    </clipPath>
    <clipPath
       clipPathUnits="userSpaceOnUse"
       id="clipPath8519">
      <rect
         style="fill:#0d6efd;fill-opacity:1;stroke:none;stroke-width:31.18110275;stroke-miterlimit:4;stroke-dasharray:none;stroke-opacity:1"
         id="rect8521"
         width="1335.1393"
         height="1548.7616"
         x="8240.7119"
         y="-3798.7617"
         ry="0.43798801" />
    </clipPath>
    <clipPath
       clipPathUnits="userSpaceOnUse"
       id="clipPath8515">
      <rect
         style="fill:#0d6efd;fill-opacity:1;stroke:none;stroke-width:31.18110275;stroke-miterlimit:4;stroke-dasharray:none;stroke-opacity:1"
         id="rect8517"
         width="1335.1393"
         height="1548.7616"
         x="8240.7119"
         y="-3798.7617"
         ry="0.43798801" />
    </clipPath>
  </defs>
  <sodipodi:namedview
     id="base"
     pagecolor="#ffffff"
     bordercolor="#666666"
     borderopacity="1.0"
     inkscape:pageopacity="0.0"
     inkscape:pageshadow="2"
     inkscape:zoom="1.01"
     inkscape:cx="400"
     inkscape:cy="441.18812"
     inkscape:document-units="mm"
     inkscape:current-layer="layer1"
     showgrid="false"
     inkscape:snap-center="true"
     inkscape:window-width="2560"
     inkscape:window-height="1377"
     inkscape:window-x="-8"
     inkscape:window-y="-8"
     inkscape:window-maximized="1" />
  <metadata
     id="metadata5">
    <rdf:RDF>
      <cc:Work
         rdf:about="">
        <dc:format>image/svg+xml</dc:format>
        <dc:type
           rdf:resource="http://purl.org/dc/dcmitype/StillImage" />
        <dc:title></dc:title>
      </cc:Work>
    </rdf:RDF>
  </metadata>
  <g
     inkscape:label="Layer 1"
     inkscape:groupmode="layer"
     id="layer1"
     transform="translate(0,-118)">
    <g
       id="g8693"
       clip-path="url(#clipPath8695)"
       transform="matrix(0.05696708,0,0,-0.05696708,-410.52345,440.58499)">
      <g
         inkscape:label="Clip"
         id="g8691">
        <path
           transform="translate(-11.609926,306.50156)"
           inkscape:connector-curvature="0"
           clip-path="url(#clipPath8627)"
           id="path1124"
           style="fill:#ffffff;fill-opacity:1;fill-rule:nonzero;stroke:none"
           d="m 8582.97,2616.53 c 0,-4.63 3.75,-8.38 8.38,-8.38 4.62,0 8.37,3.75 8.37,8.38 0,4.63 -3.75,8.37 -8.37,8.37 -4.63,0 -8.38,-3.74 -8.38,-8.37" />
        <path
           transform="translate(-11.609926,306.50156)"
           inkscape:connector-curvature="0"
           clip-path="url(#clipPath8623)"
           id="path1126"
           style="fill:#ffffff;fill-opacity:1;fill-rule:nonzero;stroke:none"
           d="m 8385.87,2691.35 c 0,-4.62 3.75,-8.37 8.37,-8.37 4.63,0 8.38,3.75 8.38,8.37 0,4.63 -3.75,8.38 -8.38,8.38 -4.62,0 -8.37,-3.75 -8.37,-8.38" />
        <path
           transform="translate(-11.609926,306.50156)"
           inkscape:connector-curvature="0"
           clip-path="url(#clipPath8619)"
           id="path1132"
           style="fill:#ffffff;fill-opacity:1;fill-rule:nonzero;stroke:none"
           d="m 9257.9,2836.53 c 0,-4.88 -3.96,-8.84 -8.83,-8.84 -4.88,0 -8.83,3.96 -8.83,8.84 0,4.87 3.95,8.82 8.83,8.82 4.87,0 8.83,-3.95 8.83,-8.82" />
        <path
           transform="translate(-11.609926,306.50156)"
           inkscape:connector-curvature="0"
           clip-path="url(#clipPath8615)"
           id="path1138"
           style="fill:#ffffff;fill-opacity:1;fill-rule:nonzero;stroke:none"
           d="m 9360.85,2836.53 c 0,-4.88 -3.95,-8.84 -8.83,-8.84 -4.87,0 -8.83,3.96 -8.83,8.84 0,4.87 3.96,8.82 8.83,8.82 4.88,0 8.83,-3.95 8.83,-8.82" />
        <path
           transform="translate(-11.609926,306.50156)"
           inkscape:connector-curvature="0"
           clip-path="url(#clipPath8611)"
           id="path1144"
           style="fill:#ffffff;fill-opacity:1;fill-rule:nonzero;stroke:none"
           d="m 9463.81,2836.53 c 0,-4.88 -3.95,-8.84 -8.83,-8.84 -4.88,0 -8.83,3.96 -8.83,8.84 0,4.87 3.95,8.82 8.83,8.82 4.88,0 8.83,-3.95 8.83,-8.82" />
        <path
           transform="translate(-11.609926,306.50156)"
           inkscape:connector-curvature="0"
           clip-path="url(#clipPath8607)"
           id="path1174"
           style="fill:#0d6efd;fill-opacity:1;fill-rule:nonzero;stroke:none"
           d="m 9083.03,2825.07 h -335.07 c 0,0 29.5,79.91 28.45,124.2 -1.7,71.91 -70.28,257.18 -70.28,257.18 -3.75,36.31 31.34,67.47 75.97,67.47 h 266.8 c 44.63,0 79.71,-31.16 75.97,-67.47 0,0 -69.47,-207.57 -70.64,-280.06 -0.72,-44.79 28.8,-101.32 28.8,-101.32" />
        <path
           transform="translate(-11.609926,306.50156)"
           inkscape:connector-curvature="0"
           clip-path="url(#clipPath8603)"
           id="path1176"
           style="fill:#f89c8e;fill-opacity:1;fill-rule:nonzero;stroke:none"
           d="m 8299.04,3298.12 27.23,58.44 c 0,0 -51.3,19.83 -70.75,-8.8 -24.39,-35.9 43.52,-49.64 43.52,-49.64" />
        <path
           transform="translate(-11.609926,306.50156)"
           inkscape:connector-curvature="0"
           clip-path="url(#clipPath8599)"
           id="path1178"
           style="fill:#0d6efd;fill-opacity:1;fill-rule:nonzero;stroke:none"
           d="m 8847.5,3197.67 c -14.22,-23.38 -87.52,-26.49 -207.58,-36.13 -120.06,-9.63 -140.45,-5.68 -153.72,1.61 -13.27,7.29 -187.16,134.97 -187.16,134.97 l 27.23,58.44 200.1,-114.34 c 0,0 191.99,36.6 255.73,31.7 22.11,-1.71 65.4,-76.25 65.4,-76.25" />
        <path
           transform="translate(-11.609926,306.50156)"
           inkscape:connector-curvature="0"
           clip-path="url(#clipPath8595)"
           id="path1180"
           style="fill:#f89c8e;fill-opacity:1;fill-rule:nonzero;stroke:none"
           d="m 9517.75,3298.12 -27.22,58.44 c 0,0 51.3,19.83 70.75,-8.8 24.38,-35.9 -43.53,-49.64 -43.53,-49.64" />
        <path
           transform="translate(-11.609926,306.50156)"
           inkscape:connector-curvature="0"
           clip-path="url(#clipPath8591)"
           id="path1182"
           style="fill:#0d6efd;fill-opacity:1;fill-rule:nonzero;stroke:none"
           d="m 8969.29,3197.67 c 14.23,-23.38 87.53,-26.49 207.59,-36.13 120.06,-9.63 140.44,-5.68 153.72,1.61 13.27,7.29 187.15,134.97 187.15,134.97 l -27.22,58.44 -200.11,-114.34 c 0,0 -191.99,36.6 -255.73,31.7 -22.1,-1.71 -65.4,-76.25 -65.4,-76.25" />
        <path
           transform="translate(-11.609926,306.50156)"
           inkscape:connector-curvature="0"
           clip-path="url(#clipPath8587)"
           id="path1184"
           style="fill:#0d6efd;fill-opacity:1;fill-rule:nonzero;stroke:none"
           d="m 8747.96,2825.07 h 335.07 c 0,0 89.16,-170.58 5.52,-194.48 -91.52,-26.15 -240.23,-24.51 -328.48,-3.27 -103.27,24.87 -12.11,197.75 -12.11,197.75" />
        <path
           transform="translate(-11.609926,306.50156)"
           inkscape:connector-curvature="0"
           clip-path="url(#clipPath8583)"
           id="path1446"
           style="fill:#93a5db;fill-opacity:1;fill-rule:nonzero;stroke:none"
           d="m 8501.86,2816.08 c -3.58,51.87 95.6,68.63 147.08,44.12 51.48,-24.51 237.78,-161.79 286.81,-198.56 49.03,-36.77 151.98,-129.92 151.98,-129.92 L 9024,2448.38 c 0,0 -242.69,147.08 -357.9,198.55 -115.21,51.48 -159.34,98.06 -164.24,169.15" />
        <path
           transform="translate(-11.609926,306.50156)"
           inkscape:connector-curvature="0"
           clip-path="url(#clipPath8579)"
           id="path1448"
           style="fill:#aab6e2;fill-opacity:1;fill-rule:nonzero;stroke:none"
           d="m 9340.13,2816.08 c 3.57,51.87 -95.61,68.63 -147.08,44.12 -51.48,-24.51 -237.78,-161.79 -286.81,-198.56 -49.03,-36.77 -151.98,-129.92 -151.98,-129.92 l 63.73,-83.34 c 0,0 242.68,147.08 357.9,198.55 115.21,51.48 159.33,98.06 164.24,169.15" />
        <path
           transform="translate(-11.609926,306.50156)"
           inkscape:connector-curvature="0"
           clip-path="url(#clipPath8575)"
           id="path1450"
           style="fill:#f57d87;fill-opacity:1;fill-rule:nonzero;stroke:none"
           d="m 8754.26,2531.72 63.73,-83.34 c 0,0 -17.07,-118.49 -49.75,-125.02 -32.68,-6.54 -40.85,111.12 -47.39,150.35 -6.54,39.22 33.41,58.01 33.41,58.01" />
        <path
           transform="translate(-11.609926,306.50156)"
           inkscape:connector-curvature="0"
           clip-path="url(#clipPath8571)"
           id="path1452"
           style="fill:#f57d87;fill-opacity:1;fill-rule:nonzero;stroke:none"
           d="m 9086.6,2531.72 -63.73,-83.34 c 0,0 17.06,-118.49 49.75,-125.02 32.68,-6.54 40.85,111.12 47.39,150.35 6.53,39.22 -33.41,58.01 -33.41,58.01" />
        <path
           transform="translate(-11.609926,306.50156)"
           inkscape:connector-curvature="0"
           clip-path="url(#clipPath8567)"
           id="path1454"
           style="fill:#f57b7a;fill-opacity:1;fill-rule:nonzero;stroke:none"
           d="m 8913.88,3226.77 c 59.35,0 59.01,40.36 59.01,50.05 v 65.68 c 0,14.87 -22.19,13.62 -35.39,13.62 h -42.49 c -13.2,0 -35.39,-12.06 -35.39,-26.93 v -52.37 c 0,-9.59 6.25,-50.05 54.26,-50.05" />
        <path
           transform="translate(-11.609926,306.50156)"
           inkscape:connector-curvature="0"
           clip-path="url(#clipPath8563)"
           id="path1456"
           style="fill:#f89c8e;fill-opacity:1;fill-rule:nonzero;stroke:none"
           d="m 8879.3,3308.68 c 43.51,-34.8 75.48,-2.53 110.28,40.98 34.8,43.51 27.74,107 -15.77,141.8 -43.51,34.8 -107,27.74 -141.8,-15.77 -34.8,-43.51 3.77,-132.21 47.29,-167.01" />
        <g
           transform="translate(-11.609926,306.50156)"
           clip-path="url(#clipPath8559)"
           id="g1458">
          <g
             clip-path="url(#clipPath1464)"
             id="g1460">
            <path
               inkscape:connector-curvature="0"
               id="path1466"
               style="fill:#151a36;fill-opacity:1;fill-rule:nonzero;stroke:none"
               d="m 8816.45,3359.46 c 0,0 24.1,92.33 51.89,108.67 27.78,16.35 36.98,-14.98 47.8,-15.93 10.24,-0.9 18.38,23.4 36.77,18.39 53.93,-14.71 64.55,-145.45 64.55,-145.45 0,0 63.74,194.47 -67,220.62 -130.74,26.15 -153.62,-65.37 -151.99,-86.62 1.64,-21.24 17.98,-99.68 17.98,-99.68" />
          </g>
        </g>
        <path
           transform="translate(-11.609926,306.50156)"
           inkscape:connector-curvature="0"
           clip-path="url(#clipPath8555)"
           id="path1468"
           style="fill:#151a36;fill-opacity:1;fill-rule:nonzero;stroke:none"
           d="m 8911.24,3498.78 c -15.94,8.58 -52.71,62.51 -28.19,93.15 18.44,23.05 72.78,18.3 77.21,-17.16 4.91,-39.22 -18.38,-77.22 -26.96,-82.12 -8.58,-4.9 -22.06,6.13 -22.06,6.13" />
        <rect
           clip-path="url(#clipPath8551)"
           transform="matrix(1,0,0,-1,-11.609926,306.50156)"
           y="-3789.1567"
           x="8186.7476"
           height="1557.2286"
           width="1421.686"
           id="rect6820"
           style="fill:#000000;fill-opacity:0;stroke:none;stroke-width:31.18110275;stroke-miterlimit:4;stroke-dasharray:none;stroke-opacity:1" />
        <rect
           clip-path="url(#clipPath8547)"
           transform="matrix(1,0,0,-1,-11.609926,306.50156)"
           y="-3753.4724"
           x="8225.6943"
           height="1521.5442"
           width="1382.7393"
           id="rect6827"
           style="fill:#000000;fill-opacity:0;stroke:none;stroke-width:31.18110275;stroke-miterlimit:4;stroke-dasharray:none;stroke-opacity:1" />
        <rect
           clip-path="url(#clipPath8543)"
           transform="matrix(1,0,0,-1,-11.609926,306.50156)"
           y="-3789.1567"
           x="8186.7476"
           height="480.47672"
           width="692.55243"
           id="rect6833"
           style="fill:#000000;fill-opacity:0;stroke:none;stroke-width:31.18110275;stroke-miterlimit:4;stroke-dasharray:none;stroke-opacity:1" />
        <rect
           clip-path="url(#clipPath8539)"
           transform="matrix(1,0,0,-1,-11.609926,306.50156)"
           y="-3906.2502"
           x="8121.5278"
           height="1465.2778"
           width="1347.2222"
           id="rect6835"
           style="fill:#000000;fill-opacity:0;stroke:none;stroke-width:31.18110275;stroke-miterlimit:4;stroke-dasharray:none;stroke-opacity:1" />
        <rect
           clip-path="url(#clipPath8535)"
           transform="matrix(1,0,0,-1,-11.609926,306.50156)"
           y="-3784.7224"
           x="8312.501"
           height="697.91669"
           width="788.19446"
           id="rect6837"
           style="fill:#000000;fill-opacity:0;stroke:none;stroke-width:31.18110275;stroke-miterlimit:4;stroke-dasharray:none;stroke-opacity:1" />
        <rect
           clip-path="url(#clipPath8531)"
           transform="matrix(1,0,0,-1,-11.609926,306.50156)"
           y="-2825.0701"
           x="8747.96"
           height="12.569931"
           width="68.312851"
           id="rect8485"
           style="fill:#0d6efd;fill-opacity:1;stroke:none;stroke-width:31.18110275;stroke-miterlimit:4;stroke-dasharray:none;stroke-opacity:1" />
        <rect
           clip-path="url(#clipPath8527)"
           transform="matrix(1,0,0,-1,-11.609926,306.50156)"
           y="-2828.7224"
           x="8749.874"
           height="10.56338"
           width="326.33301"
           id="rect8487"
           style="fill:#0d6efd;fill-opacity:1;stroke:none;stroke-width:31.18110275;stroke-miterlimit:4;stroke-dasharray:none;stroke-opacity:1" />
        <path
           clip-path="url(#clipPath8523)"
           d="m 9080.046,-2824.3281 a 2.3584907,2.2870212 0 0 1 -0.6797,1.6063"
           sodipodi:open="true"
           sodipodi:end="0.77871006"
           sodipodi:start="0"
           sodipodi:ry="2.2870212"
           sodipodi:rx="2.3584907"
           sodipodi:cy="-2824.3281"
           sodipodi:cx="9077.6875"
           sodipodi:type="arc"
           transform="matrix(1,0,0,-1,-11.609926,306.50156)"
           id="path8507"
           style="fill:#0d6efd;fill-opacity:1;stroke:none;stroke-width:31.18110275;stroke-miterlimit:4;stroke-dasharray:none;stroke-opacity:1" />
        <rect
           clip-path="url(#clipPath8519)"
           ry="0.43798801"
           transform="matrix(1,0,0,-1,-11.609926,306.50156)"
           y="-2825.6147"
           x="9075.1143"
           height="3.144654"
           width="7.7186966"
           id="rect8509"
           style="fill:#0d6efd;fill-opacity:1;stroke:none;stroke-width:31.18110275;stroke-miterlimit:4;stroke-dasharray:none;stroke-opacity:1" />
        <rect
           clip-path="url(#clipPath8515)"
           ry="0.43798801"
           transform="matrix(1,0,0,-1,-11.609926,306.50156)"
           y="-2825.2407"
           x="9081.9111"
           height="0.9649291"
           width="1.1793578"
           id="rect8511"
           style="fill:#0d6efd;fill-opacity:1;stroke:none;stroke-width:31.18110275;stroke-miterlimit:4;stroke-dasharray:none;stroke-opacity:1" />
      </g>
    </g>
  </g>
</svg>
